<mxfile host="app.diagrams.net" modified="2020-05-29T03:06:35.989Z" agent="5.0 (Windows)" etag="eI96EI32ZBJiQmin2quh" version="13.1.5" type="github">
  <diagram id="MroqZocTXahTPW0P6IBR" name="Page-1">
    <mxGraphModel dx="758" dy="385" grid="1" gridSize="10" guides="1" tooltips="1" connect="1" arrows="1" fold="1" page="1" pageScale="1" pageWidth="850" pageHeight="1100" math="0" shadow="0">
      <root>
        <mxCell id="0" />
        <mxCell id="1" parent="0" />
        <mxCell id="cnjoZc7rNa3oFAM0rvdG-58" value="" style="endArrow=none;html=1;entryX=1;entryY=0.5;entryDx=0;entryDy=0;exitX=0;exitY=0.5;exitDx=0;exitDy=0;" edge="1" parent="1" source="cnjoZc7rNa3oFAM0rvdG-15" target="cnjoZc7rNa3oFAM0rvdG-4">
          <mxGeometry width="50" height="50" relative="1" as="geometry">
            <mxPoint x="340" y="210" as="sourcePoint" />
            <mxPoint x="390" y="160" as="targetPoint" />
          </mxGeometry>
        </mxCell>
        <mxCell id="cnjoZc7rNa3oFAM0rvdG-59" value="" style="endArrow=none;html=1;entryX=0.993;entryY=0.679;entryDx=0;entryDy=0;exitX=0;exitY=0.5;exitDx=0;exitDy=0;entryPerimeter=0;" edge="1" parent="1" source="cnjoZc7rNa3oFAM0rvdG-37" target="cnjoZc7rNa3oFAM0rvdG-48">
          <mxGeometry width="50" height="50" relative="1" as="geometry">
            <mxPoint x="425" y="560" as="sourcePoint" />
            <mxPoint x="130" y="480" as="targetPoint" />
          </mxGeometry>
        </mxCell>
        <mxCell id="cnjoZc7rNa3oFAM0rvdG-60" value="1" style="text;html=1;align=center;verticalAlign=middle;resizable=0;points=[];autosize=1;" vertex="1" parent="1">
          <mxGeometry x="800" y="122" width="20" height="20" as="geometry" />
        </mxCell>
        <mxCell id="cnjoZc7rNa3oFAM0rvdG-61" value="m" style="text;html=1;align=center;verticalAlign=middle;resizable=0;points=[];autosize=1;" vertex="1" parent="1">
          <mxGeometry x="890" y="122" width="30" height="20" as="geometry" />
        </mxCell>
        <mxCell id="cnjoZc7rNa3oFAM0rvdG-62" value="" style="endArrow=none;html=1;entryX=1;entryY=0.5;entryDx=0;entryDy=0;exitX=0;exitY=0.5;exitDx=0;exitDy=0;" edge="1" parent="1" source="cnjoZc7rNa3oFAM0rvdG-48" target="cnjoZc7rNa3oFAM0rvdG-15">
          <mxGeometry width="50" height="50" relative="1" as="geometry">
            <mxPoint x="350" y="370" as="sourcePoint" />
            <mxPoint x="400" y="320" as="targetPoint" />
          </mxGeometry>
        </mxCell>
        <mxCell id="cnjoZc7rNa3oFAM0rvdG-63" value="1" style="text;html=1;align=center;verticalAlign=middle;resizable=0;points=[];autosize=1;" vertex="1" parent="1">
          <mxGeometry x="490" y="122" width="20" height="20" as="geometry" />
        </mxCell>
        <mxCell id="cnjoZc7rNa3oFAM0rvdG-64" value="m" style="text;html=1;align=center;verticalAlign=middle;resizable=0;points=[];autosize=1;" vertex="1" parent="1">
          <mxGeometry x="580" y="122" width="30" height="20" as="geometry" />
        </mxCell>
        <mxCell id="cnjoZc7rNa3oFAM0rvdG-67" value="1" style="text;html=1;align=center;verticalAlign=middle;resizable=0;points=[];autosize=1;" vertex="1" parent="1">
          <mxGeometry x="200" y="122" width="20" height="20" as="geometry" />
        </mxCell>
        <mxCell id="cnjoZc7rNa3oFAM0rvdG-68" value="m" style="text;html=1;align=center;verticalAlign=middle;resizable=0;points=[];autosize=1;" vertex="1" parent="1">
          <mxGeometry x="280" y="122" width="30" height="20" as="geometry" />
        </mxCell>
        <mxCell id="cnjoZc7rNa3oFAM0rvdG-1" value="Development" style="swimlane;fontStyle=0;childLayout=stackLayout;horizontal=1;startSize=26;horizontalStack=0;resizeParent=1;resizeParentMax=0;resizeLast=0;collapsible=1;marginBottom=0;align=center;fontSize=14;" vertex="1" parent="1">
          <mxGeometry x="40" y="73" width="160" height="150" as="geometry" />
        </mxCell>
        <mxCell id="cnjoZc7rNa3oFAM0rvdG-2" value="DevelopmentName" style="shape=partialRectangle;top=0;left=0;right=0;bottom=1;align=left;verticalAlign=middle;fillColor=none;spacingLeft=34;spacingRight=4;overflow=hidden;rotatable=0;points=[[0,0.5],[1,0.5]];portConstraint=eastwest;dropTarget=0;fontStyle=5;fontSize=12;" vertex="1" parent="cnjoZc7rNa3oFAM0rvdG-1">
          <mxGeometry y="26" width="160" height="30" as="geometry" />
        </mxCell>
        <mxCell id="cnjoZc7rNa3oFAM0rvdG-3" value="PK" style="shape=partialRectangle;top=0;left=0;bottom=0;fillColor=none;align=left;verticalAlign=middle;spacingLeft=4;spacingRight=4;overflow=hidden;rotatable=0;points=[];portConstraint=eastwest;part=1;fontSize=12;" vertex="1" connectable="0" parent="cnjoZc7rNa3oFAM0rvdG-2">
          <mxGeometry width="30" height="30" as="geometry" />
        </mxCell>
        <mxCell id="cnjoZc7rNa3oFAM0rvdG-4" value="Locations" style="shape=partialRectangle;top=0;left=0;right=0;bottom=0;align=left;verticalAlign=top;fillColor=none;spacingLeft=34;spacingRight=4;overflow=hidden;rotatable=0;points=[[0,0.5],[1,0.5]];portConstraint=eastwest;dropTarget=0;fontSize=12;" vertex="1" parent="cnjoZc7rNa3oFAM0rvdG-1">
          <mxGeometry y="56" width="160" height="26" as="geometry" />
        </mxCell>
        <mxCell id="cnjoZc7rNa3oFAM0rvdG-5" value="" style="shape=partialRectangle;top=0;left=0;bottom=0;fillColor=none;align=left;verticalAlign=top;spacingLeft=4;spacingRight=4;overflow=hidden;rotatable=0;points=[];portConstraint=eastwest;part=1;fontSize=12;" vertex="1" connectable="0" parent="cnjoZc7rNa3oFAM0rvdG-4">
          <mxGeometry width="30" height="26" as="geometry" />
        </mxCell>
        <mxCell id="cnjoZc7rNa3oFAM0rvdG-6" value="YearOpened" style="shape=partialRectangle;top=0;left=0;right=0;bottom=0;align=left;verticalAlign=top;fillColor=none;spacingLeft=34;spacingRight=4;overflow=hidden;rotatable=0;points=[[0,0.5],[1,0.5]];portConstraint=eastwest;dropTarget=0;fontSize=12;" vertex="1" parent="cnjoZc7rNa3oFAM0rvdG-1">
          <mxGeometry y="82" width="160" height="26" as="geometry" />
        </mxCell>
        <mxCell id="cnjoZc7rNa3oFAM0rvdG-7" value="" style="shape=partialRectangle;top=0;left=0;bottom=0;fillColor=none;align=left;verticalAlign=top;spacingLeft=4;spacingRight=4;overflow=hidden;rotatable=0;points=[];portConstraint=eastwest;part=1;fontSize=12;" vertex="1" connectable="0" parent="cnjoZc7rNa3oFAM0rvdG-6">
          <mxGeometry width="30" height="26" as="geometry" />
        </mxCell>
        <mxCell id="cnjoZc7rNa3oFAM0rvdG-10" value="" style="shape=partialRectangle;top=0;left=0;right=0;bottom=0;align=left;verticalAlign=top;fillColor=none;spacingLeft=34;spacingRight=4;overflow=hidden;rotatable=0;points=[[0,0.5],[1,0.5]];portConstraint=eastwest;dropTarget=0;fontSize=12;" vertex="1" parent="cnjoZc7rNa3oFAM0rvdG-1">
          <mxGeometry y="108" width="160" height="42" as="geometry" />
        </mxCell>
        <mxCell id="cnjoZc7rNa3oFAM0rvdG-11" value="" style="shape=partialRectangle;top=0;left=0;bottom=0;fillColor=none;align=left;verticalAlign=top;spacingLeft=4;spacingRight=4;overflow=hidden;rotatable=0;points=[];portConstraint=eastwest;part=1;fontSize=12;" vertex="1" connectable="0" parent="cnjoZc7rNa3oFAM0rvdG-10">
          <mxGeometry width="30" height="42" as="geometry" />
        </mxCell>
        <mxCell id="cnjoZc7rNa3oFAM0rvdG-85" value="Height" style="shape=partialRectangle;top=0;left=0;right=0;bottom=0;align=left;verticalAlign=top;fillColor=none;spacingLeft=34;spacingRight=4;overflow=hidden;rotatable=0;points=[[0,0.5],[1,0.5]];portConstraint=eastwest;dropTarget=0;fontSize=12;" vertex="1" parent="1">
          <mxGeometry x="40" y="180" width="160" height="26" as="geometry" />
        </mxCell>
        <mxCell id="cnjoZc7rNa3oFAM0rvdG-86" value="" style="shape=partialRectangle;top=0;left=0;bottom=0;fillColor=none;align=left;verticalAlign=top;spacingLeft=4;spacingRight=4;overflow=hidden;rotatable=0;points=[];portConstraint=eastwest;part=1;fontSize=12;" vertex="1" connectable="0" parent="cnjoZc7rNa3oFAM0rvdG-85">
          <mxGeometry width="30" height="26" as="geometry" />
        </mxCell>
        <mxCell id="cnjoZc7rNa3oFAM0rvdG-12" value="Unit" style="swimlane;fontStyle=0;childLayout=stackLayout;horizontal=1;startSize=26;horizontalStack=0;resizeParent=1;resizeParentMax=0;resizeLast=0;collapsible=1;marginBottom=0;align=center;fontSize=14;" vertex="1" parent="1">
          <mxGeometry x="310" y="73" width="180" height="160" as="geometry" />
        </mxCell>
        <mxCell id="cnjoZc7rNa3oFAM0rvdG-13" value="      UnitNumber" style="shape=partialRectangle;top=0;left=0;right=0;bottom=1;align=left;verticalAlign=middle;fillColor=none;spacingLeft=34;spacingRight=4;overflow=hidden;rotatable=0;points=[[0,0.5],[1,0.5]];portConstraint=eastwest;dropTarget=0;fontStyle=1;fontSize=12;" vertex="1" parent="cnjoZc7rNa3oFAM0rvdG-12">
          <mxGeometry y="26" width="180" height="30" as="geometry" />
        </mxCell>
        <mxCell id="cnjoZc7rNa3oFAM0rvdG-14" value="PK" style="shape=partialRectangle;top=0;left=0;bottom=0;fillColor=none;align=left;verticalAlign=middle;spacingLeft=4;spacingRight=4;overflow=hidden;rotatable=0;points=[];portConstraint=eastwest;part=1;fontSize=12;" vertex="1" connectable="0" parent="cnjoZc7rNa3oFAM0rvdG-13">
          <mxGeometry width="50" height="30" as="geometry" />
        </mxCell>
        <mxCell id="cnjoZc7rNa3oFAM0rvdG-15" value="      NoOfBedrooms" style="shape=partialRectangle;top=0;left=0;right=0;bottom=0;align=left;verticalAlign=top;fillColor=none;spacingLeft=34;spacingRight=4;overflow=hidden;rotatable=0;points=[[0,0.5],[1,0.5]];portConstraint=eastwest;dropTarget=0;fontSize=12;" vertex="1" parent="cnjoZc7rNa3oFAM0rvdG-12">
          <mxGeometry y="56" width="180" height="26" as="geometry" />
        </mxCell>
        <mxCell id="cnjoZc7rNa3oFAM0rvdG-16" value="" style="shape=partialRectangle;top=0;left=0;bottom=0;fillColor=none;align=left;verticalAlign=top;spacingLeft=4;spacingRight=4;overflow=hidden;rotatable=0;points=[];portConstraint=eastwest;part=1;fontSize=12;" vertex="1" connectable="0" parent="cnjoZc7rNa3oFAM0rvdG-15">
          <mxGeometry width="50" height="26" as="geometry" />
        </mxCell>
        <mxCell id="cnjoZc7rNa3oFAM0rvdG-17" value="      NoOfBathrooms" style="shape=partialRectangle;top=0;left=0;right=0;bottom=0;align=left;verticalAlign=top;fillColor=none;spacingLeft=34;spacingRight=4;overflow=hidden;rotatable=0;points=[[0,0.5],[1,0.5]];portConstraint=eastwest;dropTarget=0;fontSize=12;" vertex="1" parent="cnjoZc7rNa3oFAM0rvdG-12">
          <mxGeometry y="82" width="180" height="26" as="geometry" />
        </mxCell>
        <mxCell id="cnjoZc7rNa3oFAM0rvdG-18" value="" style="shape=partialRectangle;top=0;left=0;bottom=0;fillColor=none;align=left;verticalAlign=top;spacingLeft=4;spacingRight=4;overflow=hidden;rotatable=0;points=[];portConstraint=eastwest;part=1;fontSize=12;" vertex="1" connectable="0" parent="cnjoZc7rNa3oFAM0rvdG-17">
          <mxGeometry width="50" height="26" as="geometry" />
        </mxCell>
        <mxCell id="cnjoZc7rNa3oFAM0rvdG-19" value="      UnitSize" style="shape=partialRectangle;top=0;left=0;right=0;bottom=0;align=left;verticalAlign=top;fillColor=none;spacingLeft=34;spacingRight=4;overflow=hidden;rotatable=0;points=[[0,0.5],[1,0.5]];portConstraint=eastwest;dropTarget=0;fontSize=12;" vertex="1" parent="cnjoZc7rNa3oFAM0rvdG-12">
          <mxGeometry y="108" width="180" height="26" as="geometry" />
        </mxCell>
        <mxCell id="cnjoZc7rNa3oFAM0rvdG-20" value="" style="shape=partialRectangle;top=0;left=0;bottom=0;fillColor=none;align=left;verticalAlign=top;spacingLeft=4;spacingRight=4;overflow=hidden;rotatable=0;points=[];portConstraint=eastwest;part=1;fontSize=12;" vertex="1" connectable="0" parent="cnjoZc7rNa3oFAM0rvdG-19">
          <mxGeometry width="50" height="26" as="geometry" />
        </mxCell>
        <mxCell id="cnjoZc7rNa3oFAM0rvdG-21" value="      DevelopmentName" style="shape=partialRectangle;top=0;left=0;right=0;bottom=0;align=left;verticalAlign=top;fillColor=none;spacingLeft=34;spacingRight=4;overflow=hidden;rotatable=0;points=[[0,0.5],[1,0.5]];portConstraint=eastwest;dropTarget=0;fontSize=12;" vertex="1" parent="cnjoZc7rNa3oFAM0rvdG-12">
          <mxGeometry y="134" width="180" height="26" as="geometry" />
        </mxCell>
        <mxCell id="cnjoZc7rNa3oFAM0rvdG-22" value="     PK, FK" style="shape=partialRectangle;top=0;left=0;bottom=0;fillColor=none;align=left;verticalAlign=top;spacingLeft=4;spacingRight=4;overflow=hidden;rotatable=0;points=[];portConstraint=eastwest;part=1;fontSize=12;" vertex="1" connectable="0" parent="cnjoZc7rNa3oFAM0rvdG-21">
          <mxGeometry x="-20" width="70" height="26" as="geometry" />
        </mxCell>
        <mxCell id="cnjoZc7rNa3oFAM0rvdG-45" value="Occupancy" style="swimlane;fontStyle=0;childLayout=stackLayout;horizontal=1;startSize=26;horizontalStack=0;resizeParent=1;resizeParentMax=0;resizeLast=0;collapsible=1;marginBottom=0;align=center;fontSize=14;" vertex="1" parent="1">
          <mxGeometry x="610" y="73" width="185" height="160" as="geometry" />
        </mxCell>
        <mxCell id="cnjoZc7rNa3oFAM0rvdG-46" value="      OccupancyID" style="shape=partialRectangle;top=0;left=0;right=0;bottom=1;align=left;verticalAlign=middle;fillColor=none;spacingLeft=34;spacingRight=4;overflow=hidden;rotatable=0;points=[[0,0.5],[1,0.5]];portConstraint=eastwest;dropTarget=0;fontStyle=1;fontSize=12;" vertex="1" parent="cnjoZc7rNa3oFAM0rvdG-45">
          <mxGeometry y="26" width="185" height="30" as="geometry" />
        </mxCell>
        <mxCell id="cnjoZc7rNa3oFAM0rvdG-47" value="PK" style="shape=partialRectangle;top=0;left=0;bottom=0;fillColor=none;align=left;verticalAlign=middle;spacingLeft=4;spacingRight=4;overflow=hidden;rotatable=0;points=[];portConstraint=eastwest;part=1;fontSize=12;" vertex="1" connectable="0" parent="cnjoZc7rNa3oFAM0rvdG-46">
          <mxGeometry width="50" height="30" as="geometry" />
        </mxCell>
        <mxCell id="cnjoZc7rNa3oFAM0rvdG-48" value="      StartDate" style="shape=partialRectangle;top=0;left=0;right=0;bottom=0;align=left;verticalAlign=top;fillColor=none;spacingLeft=34;spacingRight=4;overflow=hidden;rotatable=0;points=[[0,0.5],[1,0.5]];portConstraint=eastwest;dropTarget=0;fontSize=12;" vertex="1" parent="cnjoZc7rNa3oFAM0rvdG-45">
          <mxGeometry y="56" width="185" height="26" as="geometry" />
        </mxCell>
        <mxCell id="cnjoZc7rNa3oFAM0rvdG-49" value="PK" style="shape=partialRectangle;top=0;left=0;bottom=0;fillColor=none;align=left;verticalAlign=top;spacingLeft=4;spacingRight=4;overflow=hidden;rotatable=0;points=[];portConstraint=eastwest;part=1;fontSize=12;" vertex="1" connectable="0" parent="cnjoZc7rNa3oFAM0rvdG-48">
          <mxGeometry width="50" height="26" as="geometry" />
        </mxCell>
        <mxCell id="cnjoZc7rNa3oFAM0rvdG-50" value="      EndDate" style="shape=partialRectangle;top=0;left=0;right=0;bottom=0;align=left;verticalAlign=top;fillColor=none;spacingLeft=34;spacingRight=4;overflow=hidden;rotatable=0;points=[[0,0.5],[1,0.5]];portConstraint=eastwest;dropTarget=0;fontSize=12;" vertex="1" parent="cnjoZc7rNa3oFAM0rvdG-45">
          <mxGeometry y="82" width="185" height="26" as="geometry" />
        </mxCell>
        <mxCell id="cnjoZc7rNa3oFAM0rvdG-51" value="" style="shape=partialRectangle;top=0;left=0;bottom=0;fillColor=none;align=left;verticalAlign=top;spacingLeft=4;spacingRight=4;overflow=hidden;rotatable=0;points=[];portConstraint=eastwest;part=1;fontSize=12;" vertex="1" connectable="0" parent="cnjoZc7rNa3oFAM0rvdG-50">
          <mxGeometry width="50" height="26" as="geometry" />
        </mxCell>
        <mxCell id="cnjoZc7rNa3oFAM0rvdG-52" value="      UnitNumber" style="shape=partialRectangle;top=0;left=0;right=0;bottom=0;align=left;verticalAlign=top;fillColor=none;spacingLeft=34;spacingRight=4;overflow=hidden;rotatable=0;points=[[0,0.5],[1,0.5]];portConstraint=eastwest;dropTarget=0;fontSize=12;" vertex="1" parent="cnjoZc7rNa3oFAM0rvdG-45">
          <mxGeometry y="108" width="185" height="26" as="geometry" />
        </mxCell>
        <mxCell id="cnjoZc7rNa3oFAM0rvdG-53" value="PK, FK" style="shape=partialRectangle;top=0;left=0;bottom=0;fillColor=none;align=left;verticalAlign=top;spacingLeft=4;spacingRight=4;overflow=hidden;rotatable=0;points=[];portConstraint=eastwest;part=1;fontSize=12;" vertex="1" connectable="0" parent="cnjoZc7rNa3oFAM0rvdG-52">
          <mxGeometry width="50" height="26" as="geometry" />
        </mxCell>
        <mxCell id="cnjoZc7rNa3oFAM0rvdG-54" value="      OccupantNIN" style="shape=partialRectangle;top=0;left=0;right=0;bottom=0;align=left;verticalAlign=top;fillColor=none;spacingLeft=34;spacingRight=4;overflow=hidden;rotatable=0;points=[[0,0.5],[1,0.5]];portConstraint=eastwest;dropTarget=0;fontSize=12;" vertex="1" parent="cnjoZc7rNa3oFAM0rvdG-45">
          <mxGeometry y="134" width="185" height="26" as="geometry" />
        </mxCell>
        <mxCell id="cnjoZc7rNa3oFAM0rvdG-55" value="PK, FK" style="shape=partialRectangle;top=0;left=0;bottom=0;fillColor=none;align=left;verticalAlign=top;spacingLeft=4;spacingRight=4;overflow=hidden;rotatable=0;points=[];portConstraint=eastwest;part=1;fontSize=12;" vertex="1" connectable="0" parent="cnjoZc7rNa3oFAM0rvdG-54">
          <mxGeometry width="50" height="26" as="geometry" />
        </mxCell>
        <mxCell id="cnjoZc7rNa3oFAM0rvdG-34" value="Occupant" style="swimlane;fontStyle=0;childLayout=stackLayout;horizontal=1;startSize=26;horizontalStack=0;resizeParent=1;resizeParentMax=0;resizeLast=0;collapsible=1;marginBottom=0;align=center;fontSize=14;" vertex="1" parent="1">
          <mxGeometry x="930" y="77" width="170" height="140" as="geometry" />
        </mxCell>
        <mxCell id="cnjoZc7rNa3oFAM0rvdG-35" value="OccupantNIN" style="shape=partialRectangle;top=0;left=0;right=0;bottom=1;align=left;verticalAlign=middle;fillColor=none;spacingLeft=34;spacingRight=4;overflow=hidden;rotatable=0;points=[[0,0.5],[1,0.5]];portConstraint=eastwest;dropTarget=0;fontStyle=5;fontSize=12;" vertex="1" parent="cnjoZc7rNa3oFAM0rvdG-34">
          <mxGeometry y="26" width="170" height="30" as="geometry" />
        </mxCell>
        <mxCell id="cnjoZc7rNa3oFAM0rvdG-36" value="PK" style="shape=partialRectangle;top=0;left=0;bottom=0;fillColor=none;align=left;verticalAlign=middle;spacingLeft=4;spacingRight=4;overflow=hidden;rotatable=0;points=[];portConstraint=eastwest;part=1;fontSize=12;" vertex="1" connectable="0" parent="cnjoZc7rNa3oFAM0rvdG-35">
          <mxGeometry width="30" height="30" as="geometry" />
        </mxCell>
        <mxCell id="cnjoZc7rNa3oFAM0rvdG-37" value="OccupantName" style="shape=partialRectangle;top=0;left=0;right=0;bottom=0;align=left;verticalAlign=top;fillColor=none;spacingLeft=34;spacingRight=4;overflow=hidden;rotatable=0;points=[[0,0.5],[1,0.5]];portConstraint=eastwest;dropTarget=0;fontSize=12;" vertex="1" parent="cnjoZc7rNa3oFAM0rvdG-34">
          <mxGeometry y="56" width="170" height="26" as="geometry" />
        </mxCell>
        <mxCell id="cnjoZc7rNa3oFAM0rvdG-38" value="" style="shape=partialRectangle;top=0;left=0;bottom=0;fillColor=none;align=left;verticalAlign=top;spacingLeft=4;spacingRight=4;overflow=hidden;rotatable=0;points=[];portConstraint=eastwest;part=1;fontSize=12;" vertex="1" connectable="0" parent="cnjoZc7rNa3oFAM0rvdG-37">
          <mxGeometry width="30" height="26" as="geometry" />
        </mxCell>
        <mxCell id="cnjoZc7rNa3oFAM0rvdG-39" value="OccupantGender" style="shape=partialRectangle;top=0;left=0;right=0;bottom=0;align=left;verticalAlign=top;fillColor=none;spacingLeft=34;spacingRight=4;overflow=hidden;rotatable=0;points=[[0,0.5],[1,0.5]];portConstraint=eastwest;dropTarget=0;fontSize=12;" vertex="1" parent="cnjoZc7rNa3oFAM0rvdG-34">
          <mxGeometry y="82" width="170" height="26" as="geometry" />
        </mxCell>
        <mxCell id="cnjoZc7rNa3oFAM0rvdG-40" value="" style="shape=partialRectangle;top=0;left=0;bottom=0;fillColor=none;align=left;verticalAlign=top;spacingLeft=4;spacingRight=4;overflow=hidden;rotatable=0;points=[];portConstraint=eastwest;part=1;fontSize=12;" vertex="1" connectable="0" parent="cnjoZc7rNa3oFAM0rvdG-39">
          <mxGeometry width="30" height="26" as="geometry" />
        </mxCell>
        <mxCell id="cnjoZc7rNa3oFAM0rvdG-41" value="OccupantDOB" style="shape=partialRectangle;top=0;left=0;right=0;bottom=0;align=left;verticalAlign=top;fillColor=none;spacingLeft=34;spacingRight=4;overflow=hidden;rotatable=0;points=[[0,0.5],[1,0.5]];portConstraint=eastwest;dropTarget=0;fontSize=12;" vertex="1" parent="cnjoZc7rNa3oFAM0rvdG-34">
          <mxGeometry y="108" width="170" height="26" as="geometry" />
        </mxCell>
        <mxCell id="cnjoZc7rNa3oFAM0rvdG-42" value="" style="shape=partialRectangle;top=0;left=0;bottom=0;fillColor=none;align=left;verticalAlign=top;spacingLeft=4;spacingRight=4;overflow=hidden;rotatable=0;points=[];portConstraint=eastwest;part=1;fontSize=12;" vertex="1" connectable="0" parent="cnjoZc7rNa3oFAM0rvdG-41">
          <mxGeometry width="30" height="26" as="geometry" />
        </mxCell>
        <mxCell id="cnjoZc7rNa3oFAM0rvdG-43" value="" style="shape=partialRectangle;top=0;left=0;right=0;bottom=0;align=left;verticalAlign=top;fillColor=none;spacingLeft=34;spacingRight=4;overflow=hidden;rotatable=0;points=[[0,0.5],[1,0.5]];portConstraint=eastwest;dropTarget=0;fontSize=12;" vertex="1" parent="cnjoZc7rNa3oFAM0rvdG-34">
          <mxGeometry y="134" width="170" height="6" as="geometry" />
        </mxCell>
        <mxCell id="cnjoZc7rNa3oFAM0rvdG-44" value="" style="shape=partialRectangle;top=0;left=0;bottom=0;fillColor=none;align=left;verticalAlign=top;spacingLeft=4;spacingRight=4;overflow=hidden;rotatable=0;points=[];portConstraint=eastwest;part=1;fontSize=12;" vertex="1" connectable="0" parent="cnjoZc7rNa3oFAM0rvdG-43">
          <mxGeometry y="NaN" width="30" height="NaN" as="geometry" />
        </mxCell>
      </root>
    </mxGraphModel>
  </diagram>
</mxfile>
